<svg xmlns="http://www.w3.org/2000/svg" width="187" height="67" fill="none"><path fill="#B4B4B4" d="M0 0h187v67H0z"/><g clip-path="url(#a)"><path fill="#fff" d="M-87-42h1920v15431H-87z"/><rect width="1824" height="111" x="-39" y="-23" fill="#1A325D" rx="32"/><path fill="#002E5E" stroke="#fff" stroke-width=".5" d="M28.001 65.25h.05l.046-.02c6.708-2.79 11.296-4.909 14.423-6.57 4.692-2.492 8.737-5.558 10.898-10.68 1.26-2.984 1.904-6.568 1.826-10.858v-.002l-.13-30.012v-.146l-.128-.071C47.617 2.792 37.802.75 28.001.75c-9.8 0-19.616 2.04-26.984 6.138l-.128.071-.001.147L.822 22.08.756 37.123c-.078 4.29.568 7.874 1.826 10.857 2.161 5.123 6.209 8.189 10.9 10.68 3.128 1.665 7.716 3.781 14.42 6.572l.047.019H28Z"/><path fill="#FFCB05" fillRule="evenodd" d="M28.175 61.935c4.367-1.824 8.853-3.747 13.02-5.964 4.121-2.194 7.685-4.83 9.553-9.254 1.272-3.017 1.655-6.378 1.595-9.63v-.026l-.11-16.137c-14.68-2.94-38.976-.774-48.173 12.32l-.047 3.817v.026c-.057 3.25.323 6.613 1.595 9.63 1.865 4.424 5.432 7.06 9.551 9.254 4.166 2.217 8.652 4.143 13.019 5.964z" clip-rule="evenodd"/><path fill="#fff" fillRule="evenodd" d="M35.815 36.379c-2.512 1.164-3.236 4.786-3.064 7.339.062.982.175 1.988-.237 2.913-1.196 2.67-5.3 1.044-4.416-2.673.893-3.776 2.77-7.163 2.774-11.605.003-3.663-1.456-6.922-4.426-9.874.914 3.212-.623 4.911-2.373 6.855-.954 1.058-1.913 2.097-2.377 3.486-.633 1.896-.443 4.017.977 5.893-.158-1.188-.187-2.303.019-3.298.599-2.924 4.403-4.276 5.325-6.829.985 1.613.683 3.952-.177 6.143-1.592 3.367-4.872 7.95-4.023 11.857.519 2.382 1.696 4.054 3.885 4.956 2.71 1.117 6.091-.01 7.391-2.712.641-1.332.688-2.827.266-4.453-1.446-4.994-.534-6.552.456-7.998" clip-rule="evenodd"/><path fill="#A7A9AC" fillRule="evenodd" d="m35.718 36.215.015-.01.242.28c-.482.706-.945 1.436-1.11 2.588-.169 1.17-.033 2.782.68 5.25v.005c.214.833.31 1.633.269 2.396a5.6 5.6 0 0 1-.547 2.189c-.97 2.014-3.051 3.181-5.185 3.246a6 6 0 0 1-2.451-.437v-.006c-1.129-.463-1.996-1.128-2.65-1.982-.649-.852-1.084-1.892-1.347-3.111-.683-3.137 1.214-6.654 2.837-9.669.438-.812.857-1.589 1.196-2.308.604-1.542.927-3.152.706-4.52a4.5 4.5 0 0 0-.19-.756 4 4 0 0 0-.14-.344c-.504 1.043-1.45 1.881-2.403 2.73-1.209 1.077-2.444 2.179-2.756 3.693a7.5 7.5 0 0 0-.141 1.537c0 .542.047 1.11.125 1.696l-.344.14c-1.05-1.386-1.446-2.905-1.344-4.376.02-.287.057-.574.112-.852.054-.274.13-.555.224-.832l.005-.01c.464-1.389 1.391-2.42 2.337-3.465l.08-.091.009-.01c1.709-1.892 3.204-3.554 2.318-6.66l.32-.188q2.251 2.234 3.37 4.726a12.7 12.7 0 0 1 1.115 5.282c0 2.99-.842 5.5-1.668 7.964-.409 1.22-.813 2.428-1.11 3.682-.31 1.313.026 2.347.633 2.996.266.281.581.492.91.62.33.125.68.172 1.01.13.608-.078 1.17-.459 1.504-1.193.362-.81.297-1.712.234-2.603l-.015-.219c-.125-1.868.224-4.299 1.38-5.969.23-.33.49-.63.785-.89a4.1 4.1 0 0 1 .992-.657zm-.511.755q-.117.09-.227.188c-.27.24-.51.518-.721.823-1.105 1.59-1.433 3.924-1.311 5.724l.016.219c.062.935.13 1.883-.269 2.785-.39.87-1.07 1.32-1.803 1.417a2.5 2.5 0 0 1-1.195-.15 2.8 2.8 0 0 1-1.053-.717c-.685-.733-1.07-1.887-.727-3.343.3-1.264.709-2.486 1.12-3.715.819-2.439 1.647-4.914 1.65-7.842 0-1.803-.357-3.507-1.082-5.125-.643-1.438-1.576-2.806-2.803-4.114.552 2.871-.912 4.497-2.566 6.334l-.01.013-.081.088c-.918 1.016-1.822 2.017-2.26 3.33l-.002.01a7 7 0 0 0-.208.787 6 6 0 0 0-.107.8c-.08 1.16.17 2.355.839 3.483a12 12 0 0 1-.047-.969c0-.565.047-1.107.148-1.613.34-1.644 1.618-2.782 2.877-3.902 1.034-.923 2.05-1.827 2.456-2.955l.136-.372.211.336v.005h.003q.215.36.357.755.135.396.208.821c.235 1.44-.102 3.13-.732 4.731v.01l-.005.006c-.344.727-.766 1.509-1.207 2.33-1.594 2.954-3.452 6.406-2.8 9.405.252 1.162.664 2.152 1.282 2.957.612.8 1.427 1.425 2.488 1.863h.005c.362.15.742.26 1.128.328q.584.102 1.165.083c1.998-.062 3.947-1.151 4.848-3.027.308-.641.474-1.324.508-2.043.04-.722-.055-1.482-.255-2.274-.732-2.528-.865-4.192-.69-5.41.124-.859.395-1.495.721-2.052z" clip-rule="evenodd"/><path fill="#fff" fillRule="evenodd" d="M65.938 21.518h8.989L70.464 7.59zm-7.717 12.074v-1.439c.972-.052 1.723-.323 2.246-.828q.787-.746 1.504-2.918l7.777-23.873 3.204-1.053 8.676 25.825a7 7 0 0 0 .625 1.453c.232.389.498.688.792.92q.296.216.774.326c.32.078.795.125 1.435.148v1.439H74.432v-1.439h.276q1.712 0 2.415-.422c.464-.278.693-.745.693-1.414 0-.115-.034-.297-.101-.558a11 11 0 0 0-.258-.87l-1.853-5.503H65.318l-1.375 4.565q-.121.355-.19.776a5 5 0 0 0-.068.857c0 .878.224 1.525.68 1.947.448.411 1.14.622 2.068.622h.402v1.439h-8.616zm54.507-27.417-9.895 27.417h-1.097L91.692 6.493v20.28c0 1.827.297 3.124.897 3.914.599.781 1.584 1.219 2.965 1.313l.02 1.592h-9.546V32c1.41-.11 2.402-.553 2.986-1.326.586-.777.878-2.074.878-3.9V9.723c0-1.892-.198-3.033-.596-3.442-.4-.401-1.215-.604-2.455-.604h-.815V4.2h8.41l8.73 23.43 8.58-23.428h8.777v1.475h-.734c-1.293 0-2.129.219-2.517.649-.386.435-.579 1.495-.579 3.196v19.05q-.001 2.27.6 2.932.6.652 2.498.651h.735v1.438h-11.628v-1.438h.678q1.931 0 2.545-.63c.404-.43.607-1.407.607-2.952zm21.604-1.972v1.475h-.777q-1.959.002-2.55.649-.601.651-.6 3.02v19.02q-.001 2.418.639 3.101c.422.456 1.287.685 2.587.685h.701v1.439h-11.719v-1.439h.497q2.032-.002 2.689-.622c.443-.425.659-1.423.659-2.999V9.344q.002-2.49-.617-3.083c-.407-.388-1.292-.583-2.647-.583h-.579V4.2h11.719zm25.475 0 2.418 7.074-1.28.477c-2.055-2.632-3.642-4.325-4.762-5.097a6.4 6.4 0 0 0-3.689-1.143c-.613 0-1.035.109-1.269.317q-.361.322-.362 1.199v21.583c0 1.467.211 2.428.625 2.873.419.443 1.271.667 2.564.667h.734v1.439h-11.758v-1.439h.735q1.919-.001 2.53-.643c.414-.438.62-1.389.62-2.863V7.033q-.002-.877-.36-1.199c-.239-.208-.661-.318-1.271-.318-1.347 0-2.571.38-3.689 1.144-1.115.769-2.707 2.462-4.763 5.096l-1.279-.477 2.413-7.073h21.843zm13.1 17.39-7.097-14c-.404-.756-.818-1.259-1.251-1.52-.443-.252-1.11-.393-2.014-.434l.039-1.436h10.127V5.64h-.359q-1.419 0-2.064.252c-.432.162-.651.422-.651.764 0 .15.039.325.122.536.073.22.245.56.495 1.022l5.763 11.018 5.063-10.08q.236-.482.359-.912a3.3 3.3 0 0 0 .117-.803q0-.897-.755-1.35c-.506-.296-1.287-.447-2.335-.447l.042-1.436h8.491V5.64c-1.49.169-2.673 1.115-3.567 2.83-.081.168-.14.299-.182.38l-6.375 12.208v7.673q.002 2.091.627 2.759c.423.443 1.272.667 2.564.667h.735v1.438h-11.724v-1.438h.742c1.246 0 2.074-.211 2.483-.623.404-.424.605-1.367.605-2.842zM67.593 38.295v-.78h4.838v.78q-1.064.061-1.506.643c-.292.386-.445 1.042-.445 1.967v5.823q0 2.983-1.261 4.39c-.84.943-2.147 1.412-3.906 1.412-1.758 0-3.061-.437-3.95-1.32-.89-.881-1.33-2.192-1.33-3.935v-7.287q0-1.074-.324-1.415c-.219-.224-.654-.34-1.305-.34h-.357v-.717h5.977v.716h-.373c-.66 0-1.086.11-1.295.328-.203.214-.307.712-.307 1.485v7.558q0 2.021.912 3.025c.61.667 1.529 1 2.767 1s2.243-.382 2.865-1.14q.945-1.145.946-3.452v-6.133q0-1.39-.438-1.973-.438-.577-1.51-.635zm8.77-.8 8.133 11.435v-8.025c0-.953-.164-1.62-.49-2.011q-.492-.582-1.667-.602v-.797h5.23v.797q-1.17.02-1.663.602-.497.583-.498 2.011V52.53h-.719l-8.821-12.5v8.762c0 .953.161 1.62.49 2.01.328.386.88.59 1.667.603v.797h-5.227l.008-.797c.784-.013 1.342-.217 1.662-.602q.488-.583.488-2.011v-9.703a2.4 2.4 0 0 0-.886-.604q-.523-.211-1.264-.255l-.008-.735zm17.75 0v.737h-.394q-.996.002-1.297.323-.305.328-.305 1.511v9.52q-.001 1.206.326 1.55c.213.227.654.344 1.313.344h.354v.72h-5.953v-.72h.253c.688 0 1.146-.106 1.365-.312q.335-.317.333-1.501v-9.6c0-.832-.101-1.345-.315-1.543q-.311-.293-1.347-.292h-.292v-.737h5.959m7.136 15.212-4.268-12.2q-.018-.051-.036-.107-.73-2.048-2.23-2.186v-.717h5.523v.717q-.957.051-1.329.219-.375.17-.375.52.001.11.068.381c.042.18.107.38.188.61l3.29 9.34 3.09-9.043c.063-.183.104-.344.13-.495q.043-.225.042-.425 0-.547-.37-.805c-.245-.164-.664-.268-1.253-.302v-.717h4.478v.717c-.5.041-.885.177-1.156.417q-.402.35-.73 1.279l-4.497 12.797h-.568zm7.855-.505v-.72h.344c.659 0 1.097-.111 1.305-.327q.316-.328.316-1.527v-9.58q-.002-1.224-.308-1.522-.31-.292-1.373-.291h-.284v-.738h10.414l1.469 3.46-.578.216q-1.368-1.744-2.494-2.389-1.12-.648-2.714-.648-1.289 0-1.702.333c-.276.222-.414.68-.414 1.363v4.327h1.037q1.422-.001 2.116-.557.691-.559.893-1.855h.709v5.685h-.709c-.114-.9-.406-1.54-.865-1.931-.461-.388-1.18-.581-2.141-.581h-1.037v5.044q0 .836.372 1.149c.25.208.704.313 1.347.313q1.927-.002 3.411-.792 1.482-.793 2.691-2.476l.599.209-1.433 3.84h-10.971zm23.341 0-3.991-7.146h-1.529v4.713q0 1.061.318 1.39.319.323 1.294.324h.352v.719h-5.945v-.72h.346q.993 0 1.306-.333c.211-.224.315-.747.315-1.578v-9.622q0-1.104-.31-1.412c-.209-.2-.657-.305-1.352-.305h-.305v-.737h5.924q2.78 0 4.211.992 1.435.991 1.435 2.918c0 .97-.328 1.74-.99 2.322-.654.576-1.675.98-3.051 1.209l2.736 4.734c.44.76.839 1.248 1.188 1.474.359.23.831.339 1.428.339h.151v.719h-3.531m-5.52-7.905h1.659q1.958.001 2.832-.706.876-.7.876-2.256c0-1.086-.276-1.884-.818-2.392-.542-.515-1.399-.768-2.567-.768q-1.235 0-1.61.32c-.247.211-.375.683-.375 1.415v4.387zm11.054 8.194-1.49-3.926.696-.258q1.248 1.646 2.618 2.54 1.375.891 2.66.891c.81 0 1.493-.27 2.04-.815q.82-.815.821-2.027c0-.808-.253-1.475-.756-1.949q-.756-.715-3.105-1.402c-.092-.023-.237-.067-.435-.12q-1.878-.493-2.715-1.323a4.3 4.3 0 0 1-.928-1.352 4.1 4.1 0 0 1-.318-1.592c0-1.128.376-2.069 1.134-2.814q1.136-1.123 2.847-1.123.667 0 1.483.245.81.242.972.242c.187 0 .401-.033.635-.109q.36-.106.792-.315l1.399 3.718-.588.317q-1.225-1.732-2.379-2.582c-.771-.565-1.532-.846-2.293-.846s-1.339.247-1.821.742c-.479.498-.716 1.118-.716 1.87q-.002.63.231 1.119c.154.328.404.63.738.909.453.373 1.375.737 2.777 1.105l.769.198c1.261.346 2.196.883 2.821 1.61q.938 1.093.938 2.748 0 1.826-1.196 3.085-1.196 1.26-2.915 1.261c-.672 0-1.352-.12-2.048-.354q-1.041-.361-1.102-.362-.234.002-.594.156-.359.154-.964.518zm16.109-14.994v.738h-.393q-.995.002-1.298.323-.307.328-.305 1.51v9.52q-.001 1.206.326 1.551.323.342 1.313.344h.357v.719h-5.956v-.72h.253q1.033-.002 1.365-.312c.227-.21.336-.711.336-1.5v-9.601q0-1.246-.315-1.543-.311-.292-1.347-.291h-.292v-.738zm12.949 0 1.227 3.538-.651.24q-1.57-1.975-2.423-2.548a3.26 3.26 0 0 0-1.874-.57q-.465.001-.646.158-.184.16-.185.602v10.797q0 1.104.321 1.438.319.335 1.302.334h.373v.719h-5.977v-.72h.373q.974-.001 1.287-.322c.211-.222.313-.696.313-1.433V38.912q-.001-.442-.183-.6-.181-.156-.649-.158c-.685 0-1.307.19-1.875.57-.568.384-1.376 1.23-2.418 2.549l-.654-.24 1.227-3.538h11.104zm6.657 8.702-3.606-7.008c-.204-.378-.417-.628-.636-.76-.227-.126-.565-.199-1.027-.22l.021-.716h5.146v.716h-.185c-.479 0-.831.042-1.047.125q-.334.126-.334.38a.8.8 0 0 0 .06.269q.064.164.255.51l2.929 5.514 2.574-5.042c.078-.161.143-.315.182-.456q.057-.213.058-.404a.73.73 0 0 0-.383-.672c-.256-.15-.654-.226-1.186-.226l.021-.717h4.317v.717q-1.135.129-1.813 1.414l-.094.193-3.239 6.11v3.84q0 1.045.318 1.38c.214.225.646.334 1.306.334h.372v.72h-5.958v-.72h.377q.952-.002 1.261-.312.308-.316.308-1.423v-3.548zM14.925 10.769h2.11L15.986 7.5l-1.062 3.267zM13.117 13.6v-.34q.34-.017.53-.192.183-.173.35-.685l1.827-5.6.75-.244 2.035 6.055q.066.206.146.341a.8.8 0 0 0 .185.216.6.6 0 0 0 .182.076q.112.027.337.034v.339H16.92v-.34h.068q.402 0 .565-.098.161-.099.162-.331a.6.6 0 0 0-.024-.13 3 3 0 0 0-.06-.206l-.435-1.292h-2.412l-.32 1.07a1.267 1.267 0 0 0-.06.383q-.001.308.158.456.16.146.487.146h.094v.339h-2.019zM25.9 7.17l-2.321 6.43h-.258l-2.355-6.355v4.755q0 .64.21.917c.141.185.373.284.696.307v.376h-2.233v-.376q.497-.037.701-.31.207-.273.206-.914V8.004q0-.664-.143-.807-.138-.143-.573-.144h-.193V6.71h1.972l2.048 5.495 2.011-5.495h2.058v.344h-.172c-.302 0-.497.055-.59.154q-.137.15-.136.748v4.468q0 .534.14.688c.094.101.287.15.587.15h.171v.34h-2.727v-.34h.159q.454 0 .596-.148.144-.15.143-.69V7.17zm5.065-.462v.344h-.182c-.305 0-.506.055-.6.154s-.14.339-.14.709v4.46q0 .565.148.727c.102.107.302.159.61.159h.164v.339h-2.746v-.34h.117q.474 0 .628-.145.155-.148.154-.703V7.91c0-.383-.045-.627-.144-.719-.093-.088-.302-.138-.62-.138h-.135V6.71zm5.974 0 .568 1.657-.3.11q-.724-.926-1.12-1.193a1.5 1.5 0 0 0-.865-.266c-.14 0-.242.023-.297.075q-.086.075-.086.28v5.061q.001.515.146.675.149.154.602.154h.172v.339H33v-.34h.172q.45 0 .592-.15.147-.153.146-.67V7.37q-.001-.205-.086-.28-.083-.076-.297-.075-.474.002-.865.266-.391.27-1.118 1.193l-.302-.11.568-1.656h5.12zm3.072 4.078L38.345 7.5c-.094-.177-.19-.291-.292-.354q-.154-.09-.474-.102l.01-.336h2.374v.336h-.086q-.332 0-.485.058-.153.06-.154.18 0 .05.03.127.026.076.116.237l1.353 2.582 1.185-2.363a1.2 1.2 0 0 0 .083-.216.8.8 0 0 0 .026-.188.34.34 0 0 0-.174-.315c-.117-.07-.302-.104-.547-.104l.01-.336h1.99v.336c-.348.039-.627.263-.836.664q-.028.061-.041.091l-1.498 2.864v1.797q0 .488.148.65.15.152.602.153h.174v.339h-2.748v-.34h.174q.437 0 .584-.145.14-.15.14-.667zM15.18 15.24v-.172h1.05v.172q-.229.014-.325.143-.095.13-.096.435v1.292q0 .661-.274.972-.274.315-.847.313-.569 0-.857-.292-.29-.296-.29-.873v-1.615q0-.238-.072-.316-.068-.074-.281-.075h-.079v-.159h1.298v.159h-.08c-.144 0-.235.023-.282.073-.042.05-.065.156-.065.33v1.676c0 .294.065.521.198.67q.199.221.599.221c.266 0 .487-.086.623-.253q.204-.254.205-.766v-1.36q-.002-.308-.096-.437-.094-.125-.328-.141zm2.137-.178 1.767 2.533v-1.777q-.001-.317-.107-.446-.104-.129-.363-.133v-.177h1.136v.178q-.254.003-.36.132-.11.13-.111.446v2.577h-.154l-1.915-2.77v1.944q-.001.314.107.445.105.129.362.133v.177h-1.136v-.177q.258-.003.362-.133.106-.13.107-.445v-2.152a.5.5 0 0 0-.193-.136.8.8 0 0 0-.273-.057v-.162zm4.088 0v.165h-.086q-.22 0-.279.072-.07.074-.068.334v2.11q0 .27.07.344.068.078.285.078h.078v.16H20.11v-.16h.055q.222 0 .297-.07t.075-.333v-2.13q0-.275-.07-.34-.067-.065-.292-.066h-.065v-.164zm1.782 3.372-.925-2.707s-.008-.016-.008-.024q-.159-.453-.484-.484v-.16h1.198v.16a.9.9 0 0 0-.287.047q-.08.04-.08.117a.3.3 0 0 0 .015.083q.015.059.042.136l.716 2.068.67-2.003a.8.8 0 0 0 .037-.203c0-.081-.03-.141-.081-.178a.54.54 0 0 0-.271-.067v-.16h.972v.16a.42.42 0 0 0-.25.094c-.063.052-.113.145-.16.284l-.974 2.837h-.13m1.938-.112v-.16h.076q.215 0 .281-.072.07-.074.068-.339v-2.123c0-.183-.02-.292-.065-.336q-.065-.065-.3-.066h-.06v-.164h2.262l.318.769-.125.047q-.296-.387-.542-.529a1.14 1.14 0 0 0-.592-.146q-.277-.001-.367.076-.09.07-.091.3v.96h.226q.309 0 .462-.125.15-.12.192-.411h.154v1.26h-.154q-.039-.296-.187-.426c-.102-.089-.256-.128-.464-.128h-.227v1.118q.001.186.081.255.084.067.292.068.417 0 .74-.175t.583-.55l.13.045-.31.852h-2.383zm5.302 0-.865-1.584h-.333v1.044q0 .235.068.31.07.072.28.073h.079v.16h-1.292v-.16h.075q.215.001.282-.073.069-.075.067-.349v-2.13q0-.248-.067-.313-.067-.068-.292-.068h-.068v-.164h1.287q.602-.001.915.221.31.22.312.646a.66.66 0 0 1-.216.513q-.211.191-.662.269l.592 1.05q.144.253.258.325.116.08.31.079h.034v.159h-.766zm-1.198-1.754h.36q.422 0 .614-.156.189-.155.19-.498c0-.229-.06-.416-.177-.531q-.175-.171-.557-.17-.267 0-.35.07-.08.071-.08.314zm2.631 1.819-.323-.87.151-.058q.27.366.568.563.297.199.578.198a.6.6 0 0 0 .444-.18.6.6 0 0 0 .18-.448.6.6 0 0 0-.165-.432q-.163-.16-.675-.313-.03-.01-.093-.026-.408-.11-.592-.292a1 1 0 0 1-.2-.302 1 1 0 0 1-.068-.352.85.85 0 0 1 .862-.873c.1 0 .203.019.323.055.115.037.188.055.211.055q.06 0 .138-.026.075-.024.172-.07l.302.825-.127.07a2.4 2.4 0 0 0-.519-.572c-.169-.126-.33-.19-.497-.19a.52.52 0 0 0-.396.164.58.58 0 0 0-.157.414q0 .138.05.247.048.109.159.203.148.125.604.245.109.03.167.045.41.116.612.357.205.243.203.612a.96.96 0 0 1-.26.682.83.83 0 0 1-.633.282q-.22 0-.446-.078a2 2 0 0 0-.24-.081.3.3 0 0 0-.13.036q-.077.032-.21.115zm3.731-3.325v.165h-.086q-.215 0-.281.072-.068.074-.068.334v2.11c0 .18.026.295.07.344q.072.078.284.078h.078v.16h-1.292v-.16h.057q.222 0 .295-.07.074-.071.073-.333v-2.13q-.001-.275-.068-.34t-.294-.066h-.063v-.164h1.295m3.046 0 .265.787-.14.05q-.337-.436-.527-.563a.7.7 0 0 0-.409-.128.23.23 0 0 0-.138.034q-.039.036-.039.133v2.394q0 .246.07.318.069.075.282.076h.08v.159h-1.3v-.16h.084q.21 0 .279-.07c.044-.05.07-.153.07-.317v-2.397q0-.099-.041-.133-.035-.035-.141-.034a.7.7 0 0 0-.404.127c-.125.087-.3.272-.526.566l-.141-.052.266-.787h2.412zm1.675 1.93-.782-1.555a.43.43 0 0 0-.138-.169.6.6 0 0 0-.224-.047l.005-.159h1.118v.16h-.039a.7.7 0 0 0-.227.028q-.072.028-.073.083-.001.03.013.06.012.035.055.112l.636 1.22.557-1.118a.5.5 0 0 0 .055-.19.16.16 0 0 0-.086-.149.5.5 0 0 0-.258-.052l.005-.159h.938v.16q-.245.03-.393.314l-.02.042-.702 1.355v.852c0 .156.024.255.068.307.047.05.138.076.281.076h.081v.159h-1.295v-.16h.084c.135 0 .229-.023.273-.07q.065-.07.065-.315v-.787z" clip-rule="evenodd"/><path fill="#002E5E" fillRule="evenodd" d="M24.328 49.969c2.597 5.307 13.59 3.274 12.328-4.062.881.302 1.363 1.144 1.483 2.381.138 1.425-.266 2.777-.438 4.182a25 25 0 0 0-.075 5.299q-1.352.649-2.723 1.266a100 100 0 0 1-.443-1.725 3.4 3.4 0 0 1-.68.178c.151.614.31 1.227.466 1.842l-.753.333c-.234-.568-.471-1.136-.698-1.69-.294-.017-.69-.032-.961-.076.307.682.62 1.386.933 2.084l-.858.37c-.416-.795-.838-1.608-1.25-2.39a8 8 0 0 1-.873-.088c.503.894 1.024 1.824 1.532 2.733l-.92.394-4.046-5.735c2.35 2.077 7.285 2.134 9.53-.25.652-.54.21-1.696-.903-.774-.928.761-2.145 1.246-3.393 1.449-1.92.315-3.92-.042-5.523-1.186-1.3-.93-2.24-2.404-1.738-4.535zm2.822 3.809c.093.02.156.104.138.187-.016.083-.105.136-.198.117-.094-.018-.157-.104-.139-.187.016-.084.107-.136.201-.117zm.849.15c.19.04.315.21.284.378-.037.17-.22.277-.41.238-.187-.04-.317-.209-.28-.38.033-.17.216-.277.408-.235zm.722.212a.46.46 0 0 0 .135.492c.185.156.42.133.643.14q3.493.095 5.758-2.136c.214-.232.175-.544-.05-.516-1.714 1.236-3.65 1.92-5.695 1.772-.234-.016-.677-.083-.791.248" clip-rule="evenodd"/><path fill="#fff" d="M58.047 56.766h69.769v.902h-69.77zM129.234 61.828c0 .766.17 1.498.501 2.178.341.683.828 1.23 1.472 1.618.643.401 1.375.597 2.201.597.756 0 1.462-.183 2.105-.537.657-.352 1.168-.888 1.522-1.581q.533-1.04.534-2.374c0-.888-.169-1.654-.511-2.337a3.7 3.7 0 0 0-1.472-1.607 4.16 4.16 0 0 0-2.178-.584c-1.23 0-2.227.414-3.006 1.23q-1.168 1.242-1.168 3.395zm1.194.024c0-1.313.291-2.251.888-2.811a2.94 2.94 0 0 1 2.105-.84q.855 0 1.545.438c.461.292.816.706 1.058 1.23.232.524.352 1.144.352 1.863q0 1.68-.839 2.592c-.56.61-1.277.912-2.142.912s-1.558-.305-2.118-.901c-.573-.61-.852-1.436-.852-2.483zm9.772 4.223h1.108v-6.852l4.575 6.852h1.18v-8.712h-1.107v6.839l-4.575-6.84H140.2zm9.919 0h5.453v-1.021h-4.296v-7.691h-1.157zm8.178 0h1.157v-8.712h-1.157zm4.333 0h1.107v-6.852l4.575 6.852h1.18v-8.712h-1.107v6.839l-4.575-6.84h-1.18zm9.991 0h6.498v-1.021h-5.343v-2.97h4.82v-1.022h-4.82v-2.665h5.148v-1.034h-6.305v8.712z"/></g><defs><clipPath id="a"><path fill="#fff" d="M-87-42h1920v15431H-87z"/></clipPath></defs></svg>