<svg width="10" height="11" viewBox="0 0 10 11" fill="none" xmlns="http://www.w3.org/2000/svg">
<path d="M9.14767 4.78225C9.10306 4.66278 8.98878 4.58333 8.86106 4.58333H5.17148L7.29967 0.4455C7.36659 0.315333 7.33206 0.156139 7.21687 0.0656944C7.16126 0.0216944 7.09434 0 7.02773 0C6.95653 0 6.88534 0.0250556 6.8282 0.07425L4.58328 2.013L0.105978 5.87981C0.00942226 5.96322 -0.025411 6.09797 0.0192001 6.21744C0.0638112 6.33692 0.177783 6.41667 0.305506 6.41667H3.99509L1.86689 10.5545C1.79998 10.6847 1.83451 10.8439 1.9497 10.9343C2.00531 10.9783 2.07223 11 2.13884 11C2.21003 11 2.28123 10.9749 2.33837 10.9257L4.58328 8.987L9.06059 5.12019C9.15745 5.03678 9.19198 4.90203 9.14767 4.78225Z" fill="#FFAC33"/>
</svg>
